<svg width="200" height="200" viewBox="0 0 200 200" fill="none" xmlns="http://www.w3.org/2000/svg">
<circle cx="100" cy="100" r="100" fill="#82A584"/>
<path d="M76.3114 152.701L34.2141 119.683C33.1013 118.81 32.3252 117.579 32.0175 116.199L31.9059 115.698C31.0033 111.648 34.5334 107.994 38.6116 108.757C39.5066 108.924 40.3494 109.3 41.0714 109.855L74.5828 135.599C76.4981 137.07 79.2289 136.79 80.8064 134.962L155.804 48.0142C157.325 46.2501 159.864 45.7706 161.924 46.8581L163.455 47.6664C166.294 49.1651 167.006 52.9132 164.913 55.3477L81.6703 152.176C80.312 153.756 77.9509 153.987 76.3114 152.701Z" fill="#335035"/>
</svg>
